<mxfile host="65bd71144e" scale="1" border="30">
    <diagram id="PRE3c823aTWONqRRvsT4" name="Page-1">
        <mxGraphModel dx="1441" dy="1153" grid="1" gridSize="10" guides="1" tooltips="1" connect="1" arrows="1" fold="1" page="1" pageScale="1" pageWidth="850" pageHeight="1100" math="0" shadow="0">
            <root>
                <mxCell id="0"/>
                <mxCell id="1" parent="0"/>
                <mxCell id="3" value="继承" style="endArrow=block;endSize=16;endFill=0;html=1;rounded=0;exitX=0.5;exitY=0;exitDx=0;exitDy=0;entryX=0.5;entryY=1;entryDx=0;entryDy=0;" edge="1" parent="1" source="4" target="5">
                    <mxGeometry width="160" relative="1" as="geometry">
                        <mxPoint x="240" y="360" as="sourcePoint"/>
                        <mxPoint x="400" y="360" as="targetPoint"/>
                    </mxGeometry>
                </mxCell>
                <mxCell id="4" value="&lt;span style=&quot;font-family: &amp;quot;Dank Mono&amp;quot;; font-weight: 700;&quot;&gt;std::_Hashtable&lt;/span&gt;" style="html=1;whiteSpace=wrap;fillColor=#f8cecc;strokeColor=#b85450;" vertex="1" parent="1">
                    <mxGeometry y="760" width="240" height="80" as="geometry"/>
                </mxCell>
                <mxCell id="5" value="&lt;span style=&quot;font-weight: 700;&quot;&gt;std::__detail::Hashtable_base&lt;/span&gt;&lt;div&gt;&lt;div style=&quot;&quot;&gt;&lt;b&gt;&amp;lt;_Key, _Value, _ExtractKey, _H1, _H2, _Hash,&amp;nbsp;&lt;/b&gt;&lt;b style=&quot;background-color: transparent; color: light-dark(rgb(0, 0, 0), rgb(255, 255, 255));&quot;&gt;&amp;nbsp;_Traits::__hash_cached::value&amp;gt;&lt;/b&gt;&lt;/div&gt;&lt;/div&gt;" style="html=1;whiteSpace=wrap;fillColor=#dae8fc;strokeColor=#6c8ebf;" vertex="1" parent="1">
                    <mxGeometry y="600" width="240" height="80" as="geometry"/>
                </mxCell>
                <mxCell id="6" value="&lt;span style=&quot;font-weight: 700;&quot;&gt;std::__detail::_Hashtable_ebo_helper&lt;/span&gt;&lt;div style=&quot;font-family: &amp;quot;Dank Mono&amp;quot;; font-weight: 700;&quot;&gt;&lt;span style=&quot;font-family: Helvetica;&quot;&gt;&amp;lt;0, _Equal&amp;gt;&lt;/span&gt;&lt;/div&gt;" style="html=1;whiteSpace=wrap;fillColor=#d5e8d4;strokeColor=#82b366;" vertex="1" parent="1">
                    <mxGeometry x="280" y="440" width="240" height="80" as="geometry"/>
                </mxCell>
                <mxCell id="7" value="&lt;span style=&quot;font-weight: 700;&quot;&gt;std::__detail::&lt;/span&gt;&lt;font style=&quot;font-weight: 700;&quot; face=&quot;Helvetica&quot;&gt;_Hash_code_base&lt;/font&gt;&lt;div&gt;&lt;b&gt;&lt;div style=&quot;&quot;&gt;&amp;lt;_Key, _Value, _ExtractKey, _H1, _H2,&amp;nbsp;&lt;span style=&quot;background-color: transparent; color: light-dark(rgb(0, 0, 0), rgb(255, 255, 255));&quot;&gt;_Default_ranged_hash, false&amp;gt;&lt;/span&gt;&lt;/div&gt;&lt;/b&gt;&lt;/div&gt;" style="html=1;whiteSpace=wrap;fillColor=#fff2cc;strokeColor=#d6b656;" vertex="1" parent="1">
                    <mxGeometry y="440" width="240" height="80" as="geometry"/>
                </mxCell>
                <mxCell id="8" value="继承" style="endArrow=block;endSize=16;endFill=0;html=1;rounded=0;exitX=0.5;exitY=0;exitDx=0;exitDy=0;entryX=0.5;entryY=1;entryDx=0;entryDy=0;" edge="1" parent="1" source="5" target="7">
                    <mxGeometry width="160" relative="1" as="geometry">
                        <mxPoint x="400" y="790" as="sourcePoint"/>
                        <mxPoint x="420" y="670" as="targetPoint"/>
                    </mxGeometry>
                </mxCell>
                <mxCell id="9" value="继承" style="endArrow=block;endSize=16;endFill=0;html=1;rounded=0;exitX=0.5;exitY=0;exitDx=0;exitDy=0;entryX=0.5;entryY=1;entryDx=0;entryDy=0;" edge="1" parent="1" source="5" target="6">
                    <mxGeometry width="160" relative="1" as="geometry">
                        <mxPoint x="420" y="620" as="sourcePoint"/>
                        <mxPoint x="380" y="520" as="targetPoint"/>
                    </mxGeometry>
                </mxCell>
                <mxCell id="10" value="&lt;span style=&quot;font-weight: 700;&quot;&gt;std::__detail::_Hashtable_ebo_helper&lt;/span&gt;&lt;div style=&quot;font-family: &amp;quot;Dank Mono&amp;quot;; font-weight: 700;&quot;&gt;&lt;span style=&quot;font-family: Helvetica;&quot;&gt;&amp;lt;1, _H1&amp;gt;&lt;/span&gt;&lt;/div&gt;" style="html=1;whiteSpace=wrap;fillColor=#d5e8d4;strokeColor=#82b366;" vertex="1" parent="1">
                    <mxGeometry y="280" width="240" height="80" as="geometry"/>
                </mxCell>
                <mxCell id="11" value="&lt;span style=&quot;font-weight: 700;&quot;&gt;std::__detail::_Hashtable_ebo_helper&lt;/span&gt;&lt;div style=&quot;font-family: &amp;quot;Dank Mono&amp;quot;; font-weight: 700;&quot;&gt;&lt;span style=&quot;font-family: Helvetica;&quot;&gt;&amp;lt;2, _H2&amp;gt;&lt;/span&gt;&lt;/div&gt;" style="html=1;whiteSpace=wrap;fillColor=#d5e8d4;strokeColor=#82b366;" vertex="1" parent="1">
                    <mxGeometry x="280" y="280" width="240" height="80" as="geometry"/>
                </mxCell>
                <mxCell id="12" value="继承" style="endArrow=block;endSize=16;endFill=0;html=1;rounded=0;exitX=0.5;exitY=0;exitDx=0;exitDy=0;entryX=0.5;entryY=1;entryDx=0;entryDy=0;" edge="1" parent="1" source="7" target="21">
                    <mxGeometry width="160" relative="1" as="geometry">
                        <mxPoint x="470" y="680" as="sourcePoint"/>
                        <mxPoint x="-170" y="380" as="targetPoint"/>
                    </mxGeometry>
                </mxCell>
                <mxCell id="13" value="继承" style="endArrow=block;endSize=16;endFill=0;html=1;rounded=0;exitX=0.5;exitY=0;exitDx=0;exitDy=0;entryX=0.5;entryY=1;entryDx=0;entryDy=0;" edge="1" parent="1" source="7" target="10">
                    <mxGeometry width="160" relative="1" as="geometry">
                        <mxPoint x="570" y="630" as="sourcePoint"/>
                        <mxPoint x="530" y="530" as="targetPoint"/>
                        <mxPoint as="offset"/>
                    </mxGeometry>
                </mxCell>
                <mxCell id="14" value="继承" style="endArrow=block;endSize=16;endFill=0;html=1;rounded=0;exitX=0.5;exitY=0;exitDx=0;exitDy=0;entryX=0.5;entryY=1;entryDx=0;entryDy=0;" edge="1" parent="1" source="7" target="11">
                    <mxGeometry width="160" relative="1" as="geometry">
                        <mxPoint x="640" y="580" as="sourcePoint"/>
                        <mxPoint x="600" y="480" as="targetPoint"/>
                    </mxGeometry>
                </mxCell>
                <mxCell id="15" value="&lt;div&gt;&lt;b&gt;std::__detail::_Map_base&lt;/b&gt;&lt;/div&gt;&lt;div&gt;&lt;b&gt;&amp;lt;_Key, _Value, _Alloc, _ExtractKey, _Equal,&amp;nbsp;&lt;/b&gt;&lt;b style=&quot;background-color: transparent; color: light-dark(rgb(0, 0, 0), rgb(255, 255, 255));&quot;&gt;_H1, _H2, _Hash, _RehashPolicy, _Traits&amp;gt;,&lt;/b&gt;&lt;/div&gt;" style="html=1;whiteSpace=wrap;fillColor=#dae8fc;strokeColor=#6c8ebf;" vertex="1" parent="1">
                    <mxGeometry x="-420" y="970" width="240" height="80" as="geometry"/>
                </mxCell>
                <mxCell id="16" value="继承" style="endArrow=block;endSize=16;endFill=0;html=1;rounded=0;entryX=0.5;entryY=0;entryDx=0;entryDy=0;exitX=0.5;exitY=1;exitDx=0;exitDy=0;" edge="1" parent="1" source="4" target="15">
                    <mxGeometry width="160" relative="1" as="geometry">
                        <mxPoint x="240" y="800" as="sourcePoint"/>
                        <mxPoint x="300" y="720" as="targetPoint"/>
                    </mxGeometry>
                </mxCell>
                <mxCell id="17" value="&lt;div&gt;&lt;b&gt;std::__detail::_Rehash_base&lt;/b&gt;&lt;/div&gt;&lt;div&gt;&lt;b&gt;&amp;lt;_Key, _Value, _Alloc, _ExtractKey, _Equal, _H1, _H2, _Hash, _RehashPolicy, _Traits&amp;gt;&lt;/b&gt;&lt;/div&gt;" style="html=1;whiteSpace=wrap;fillColor=#dae8fc;strokeColor=#6c8ebf;" vertex="1" parent="1">
                    <mxGeometry x="-140" y="970" width="240" height="80" as="geometry"/>
                </mxCell>
                <mxCell id="18" value="继承" style="endArrow=block;endSize=16;endFill=0;html=1;rounded=0;entryX=0.5;entryY=0;entryDx=0;entryDy=0;exitX=0.5;exitY=1;exitDx=0;exitDy=0;" edge="1" parent="1" source="4" target="17">
                    <mxGeometry x="0.0054" width="160" relative="1" as="geometry">
                        <mxPoint x="240" y="800" as="sourcePoint"/>
                        <mxPoint x="420" y="890" as="targetPoint"/>
                        <mxPoint as="offset"/>
                    </mxGeometry>
                </mxCell>
                <mxCell id="19" value="继承" style="endArrow=block;endSize=16;endFill=0;html=1;rounded=0;entryX=0.5;entryY=0;entryDx=0;entryDy=0;exitX=0.5;exitY=1;exitDx=0;exitDy=0;" edge="1" parent="1" source="4" target="26">
                    <mxGeometry width="160" relative="1" as="geometry">
                        <mxPoint x="280" y="940" as="sourcePoint"/>
                        <mxPoint x="400" y="940" as="targetPoint"/>
                    </mxGeometry>
                </mxCell>
                <mxCell id="20" value="&lt;b&gt;other policy&lt;/b&gt;" style="html=1;whiteSpace=wrap;fillColor=#dae8fc;strokeColor=#6c8ebf;" vertex="1" parent="1">
                    <mxGeometry x="420" y="970" width="240" height="80" as="geometry"/>
                </mxCell>
                <mxCell id="21" value="&lt;span style=&quot;font-weight: 700;&quot;&gt;std::__detail::_Hashtable_ebo_helper&lt;/span&gt;&lt;div style=&quot;font-family: &amp;quot;Dank Mono&amp;quot;; font-weight: 700;&quot;&gt;&lt;span style=&quot;font-family: Helvetica;&quot;&gt;&amp;lt;0, _ExtractKey&amp;gt;&lt;/span&gt;&lt;/div&gt;" style="html=1;whiteSpace=wrap;fillColor=#d5e8d4;strokeColor=#82b366;" vertex="1" parent="1">
                    <mxGeometry x="-280" y="280" width="240" height="80" as="geometry"/>
                </mxCell>
                <mxCell id="22" value="_M_get() { 返回函数对象_ExtractKey }" style="shape=document;whiteSpace=wrap;html=1;boundedLbl=1;fillColor=#d5e8d4;strokeColor=#82b366;" vertex="1" parent="1">
                    <mxGeometry x="-260" y="440" width="180" height="80" as="geometry"/>
                </mxCell>
                <mxCell id="23" value="_M_extract() {调用_Hashtable_ebo_helper&amp;lt;0, _ExtractKey&amp;gt;::_M_get() }" style="shape=document;whiteSpace=wrap;html=1;boundedLbl=1;fillColor=#fff2cc;strokeColor=#d6b656;" vertex="1" parent="1">
                    <mxGeometry x="-260" y="600" width="180" height="90" as="geometry"/>
                </mxCell>
                <mxCell id="24" value="调用_Hash_code_base::_M_extract()" style="shape=document;whiteSpace=wrap;html=1;boundedLbl=1;fillColor=#f8cecc;strokeColor=#b85450;" vertex="1" parent="1">
                    <mxGeometry x="-260" y="760" width="180" height="80" as="geometry"/>
                </mxCell>
                <mxCell id="25" value="继承" style="endArrow=block;endSize=16;endFill=0;html=1;rounded=0;exitX=0.5;exitY=1;exitDx=0;exitDy=0;entryX=0.5;entryY=0;entryDx=0;entryDy=0;" edge="1" parent="1" source="4" target="20">
                    <mxGeometry width="160" relative="1" as="geometry">
                        <mxPoint x="243" y="809" as="sourcePoint"/>
                        <mxPoint x="360" y="1120" as="targetPoint"/>
                    </mxGeometry>
                </mxCell>
                <mxCell id="26" value="&lt;b&gt;&amp;nbsp; &amp;nbsp; &amp;nbsp; std::__detail::_Equality&lt;/b&gt;&lt;div&gt;&lt;b&gt;&amp;lt;_Key, _Value, _Alloc, _ExtractKey, _Equal, _H1, _H2, _Hash, _RehashPolicy, _Traits&amp;gt;&lt;/b&gt;&lt;/div&gt;" style="html=1;whiteSpace=wrap;fillColor=#dae8fc;strokeColor=#6c8ebf;" vertex="1" parent="1">
                    <mxGeometry x="140" y="970" width="240" height="80" as="geometry"/>
                </mxCell>
                <mxCell id="27" value="实现" style="endArrow=block;dashed=1;endFill=0;endSize=12;html=1;rounded=0;exitX=0;exitY=0.5;exitDx=0;exitDy=0;entryX=1;entryY=0.5;entryDx=0;entryDy=0;" edge="1" parent="1" source="4" target="24">
                    <mxGeometry width="160" relative="1" as="geometry">
                        <mxPoint x="-20" y="810" as="sourcePoint"/>
                        <mxPoint x="-40" y="800" as="targetPoint"/>
                    </mxGeometry>
                </mxCell>
                <mxCell id="28" value="实现" style="endArrow=block;dashed=1;endFill=0;endSize=12;html=1;rounded=0;exitX=0;exitY=0.5;exitDx=0;exitDy=0;" edge="1" parent="1" source="7" target="23">
                    <mxGeometry width="160" relative="1" as="geometry">
                        <mxPoint x="-47" y="697" as="sourcePoint"/>
                        <mxPoint x="-110" y="690" as="targetPoint"/>
                    </mxGeometry>
                </mxCell>
                <mxCell id="29" value="实现" style="endArrow=block;dashed=1;endFill=0;endSize=12;html=1;rounded=0;exitX=0.5;exitY=1;exitDx=0;exitDy=0;entryX=0.5;entryY=0;entryDx=0;entryDy=0;" edge="1" parent="1" source="21" target="22">
                    <mxGeometry width="160" relative="1" as="geometry">
                        <mxPoint x="-407" y="457" as="sourcePoint"/>
                        <mxPoint x="-470" y="450" as="targetPoint"/>
                    </mxGeometry>
                </mxCell>
            </root>
        </mxGraphModel>
    </diagram>
</mxfile>